# xmcd CD database file
#
# Track frame offsets:
#	150
#	16800
#	36553
#	62900
#	77673
#	104313
#	121938
#
# Disc length: 1933 seconds
#
# Revision: 16
# Processed by: cddbd v1.5.1PL0 Copyright (c) Steve Scherf et al.
# Submitted via: CDex 1.51
#
DISCID=54078b07
DTITLE=Mr.Children - Everything
DYEAR=1992
DGENRE=J-Pop
TTITLE0=ロード・アイ・ミス・ユー
TTITLE1=Mr.Shining Moon
TTITLE2=君がいた夏
TTITLE3=風〜The wind knows how I feel〜
TTITLE4=ためいきの日曜日
TTITLE5=友達のままで
TTITLE6=CHILDREN'S WORLD
EXTD=YEAR: 1992
EXTT0=
EXTT1=
EXTT2=
EXTT3=
EXTT4=
EXTT5=
EXTT6=
PLAYORDER=
